# xmcd CD database file generated by libcdaudio 0.99.6
# 
# Track frame offsets:
#       150
#       33105
#       62829
#       77162
#       102135
#       123816
#       138358
#       159331
# 
# Disc length: 2796 seconds
# 
# Revision: 1
# Processed by: cddbd v1.4PL0 Copyright (c) Steve Scherf et al.
# Submitted via: libcdaudio 0.99.6
# 
DISCID=590aea08
DTITLE=1 - Atlantik Symphonie
DYEAR=1900
DGENRE=
TTITLE0=Atlantik Symphonie 1
TTITLE1=Atlantik Symphonie 2 
TTITLE2=Atlantik Symphonie 3
TTITLE3=Atlantik Symphonie 4
TTITLE4=Atlantik Symphonie 5
TTITLE5=Atlantik Symphonie 6
TTITLE6=Atlantik Symphonie 7
TTITLE7=Atlantik Symphonie 8
EXTD=
EXTT0=
EXTT1=
EXTT2=
EXTT3=
EXTT4=
EXTT5=
EXTT6=
EXTT7=
PLAYORDER=
